<svg id="Capa_1" data-name="Capa 1" xmlns="http://www.w3.org/2000/svg" viewBox="0 0 512 512"><title>foreground</title><path d="M369.53,303.32c-17.11-52.09-51.2-83.88-106-87.77-50.93-3.62-87.93,20.7-112.83,65.13-13.55-12.06-29.45-18.87-48.42-19.19a31,31,0,0,1,1.51-3.74c4.56-7.91,9.05-15.86,13.86-23.62,1.38-2.23,1.57-3.67.07-5.92-6.74-10.1-13.27-20.34-19.86-30.53-.6-.93-1.15-1.89-1.9-3.14l41-36.27c5.54,4.62,10.91,9.08,16.26,13.56,4.61,3.86,9.23,7.7,13.76,11.64,1.61,1.4,2.87,1.78,4.92.57a163.91,163.91,0,0,1,42.2-17.42c2.05-.53,2.73-1.52,3-3.57,1.35-11.81,2.85-23.61,4.32-35.41.15-1.23.37-2.45.63-4.08l54.78-1.3,4.57,25.85c.72,4.07,1.29,8.17,2.24,12.18a4.32,4.32,0,0,0,2.58,2.81,192.2,192.2,0,0,1,45.3,14.46c1.07.5,3.34-.26,4.37-1.2,8.45-7.64,16.74-15.46,25.08-23.22,1-.92,2-1.8,3.26-2.89l42.88,34.14-19.8,34.38c7.15,11,14,21.4,20.72,31.94a61.55,61.55,0,0,1,4.85,9.73c1.09,2.68,2.47,3.8,5.57,3.59,11-.76,22-1.09,33-1.82,3.31-.22,4.87.42,5.47,4.06,1.38,8.37,3.3,16.65,5,25-6.09-3.13-11.75-6.56-17.8-9.06-24.27-10-46-6.32-64.73,12.6C376.4,297.85,372.89,300.45,369.53,303.32Z"/><path d="M435.78,319.16q15.07,3.93,30.15,7.77c1.47.38,3,.58,4.78.93a37,37,0,0,0-8.23-19.31c-8.42-10.37-19.72-16-32.42-19-13.34-3.2-25.63-.87-36.41,7.87-3.39,2.75-6.53,5.83-9.71,8.85-6.77,6.42-14.65,9.73-24.12,9.46-12.14-.34-24.29-.3-36.44-.46-48.33-.61-96.67-1.33-145-1.77A27.41,27.41,0,0,1,158,304.79c-2.26-2.33-4.38-4.81-6.49-7.29-18.82-22.22-44-29.5-70.16-21.94A42.37,42.37,0,0,0,60.52,289c1.61.5,2.77.84,3.91,1.22,11.87,3.95,23.83,7.63,35.57,11.94,8.36,3.07,10.9,7.79,9,16.47a160.73,160.73,0,0,1-6.4,21.13,33.54,33.54,0,0,1-6,9.41,10.48,10.48,0,0,1-11.81,3.51c-14.25-4.21-28.55-8.24-43.3-12.48-.78,7.68,2,14.14,6.64,19.77a85.41,85.41,0,0,0,41.29,27.5c12.63,3.92,24.9,3,36.44-4.29,7.55-4.77,14.79-9.74,20.56-16.72,7-8.5,15.65-13.25,27.35-12.93,22,.62,44.08.23,66.12.35,38.7.21,77.4.52,116.09.67a19.64,19.64,0,0,1,13.9,5.56c2.55,2.39,4.84,5.07,7.17,7.68,16.67,18.75,37.45,23.94,61.29,18.2,7.21-1.74,13.2-5.73,16.8-13.07-1.72-.73-3.16-1.45-4.68-2-8.77-2.95-17.52-6-26.37-8.7-4.6-1.4-6.88-4.36-7.43-8.84-1.45-11.73,2.32-22,9.4-31.11A8.83,8.83,0,0,1,435.78,319.16Zm-104,27.6-134.88-1.4A12.09,12.09,0,0,1,185,333.17h0a12.09,12.09,0,0,1,12.18-11.93l134.88,1.4a12.06,12.06,0,0,1-.25,24.11Z"/></svg>